# xmcd CD database file
#
# Track frame offsets:
#	150
#	30825
#	61200
#	84075
#	118200
#	152475
#	184650
#	218925
#	255825
#
# Disc length: 3827 seconds
#
# Revision: 1
# Processed by: cddbd v1.5.1PL0 Copyright (c) Steve Scherf et al.
# Submitted via: freeDBTagger 0.5
#
DISCID=630ef109
DTITLE=角松敏生 - T`s 12 INCHES
DYEAR=1986
DGENRE=rock
TTITLE0=初恋 HATSU KOI
TTITLE1=LUCKY LADY FEEL SO GOOD
TTITLE2=STEP INTO THE LIGHT
TTITLE3=SNOW LADY FANTASY
TTITLE4=GIRL IN THE BOX〜22時までの君は・・・
TTITLE5=TOKYO TOWER (EXECUTIVE SPECIAL POWER MIX)
TTITLE6=TAKE OFF MELODY
TTITLE7=DO YOU WANNA DANCE
TTITLE8=PILE DRIVER
EXTD=
EXTT0=
EXTT1=
EXTT2=
EXTT3=
EXTT4=
EXTT5=
EXTT6=
EXTT7=
EXTT8=
PLAYORDER=
